<?xml version="1.0" encoding="utf-8"?>
<!-- Generator: Adobe Illustrator 28.0.0, SVG Export Plug-In . SVG Version: 6.00 Build 0)  -->
<svg version="1.1" id="Layer_1" xmlns="http://www.w3.org/2000/svg" xmlns:xlink="http://www.w3.org/1999/xlink" x="0px" y="0px"
	 viewBox="0 0 704.95 173.76" style="enable-background:new 0 0 704.95 173.76;" xml:space="preserve">
<style type="text/css">
	.st0{fill:#FFFFFF;}
	.st1{fill:#F3FAFE;}
	.st2{fill:#DAEBF6;}
</style>
<g>
	<path class="st0" d="M198.58,60.97h15.64l11.57,42.08c1.21,4.41,2.53,9.92,2.64,10.47c0.11-0.55,1.21-5.84,2.42-10.47l10.69-42.08
		h15.97l10.58,42.08c1.1,4.52,2.2,9.92,2.31,10.47c0.22-0.55,1.43-5.95,2.75-10.47l11.9-42.08h15.31l-21.26,71.5h-16.3L251.9,91.93
		c-1.32-4.96-2.2-11.68-2.42-12.45c-0.22,0.77-1.1,7.49-2.42,12.45l-10.91,40.54h-16.42L198.58,60.97z"/>
	<path class="st0" d="M300.93,104.82c0-15.97,13-28.64,29.41-28.64c16.53,0,29.52,12.67,29.52,28.64s-13,28.64-29.52,28.64
		C313.93,133.46,300.93,120.79,300.93,104.82z M344.77,104.82c0-8.59-6.17-14.98-14.43-14.98s-14.43,6.39-14.43,14.98
		c0,8.7,6.17,14.98,14.43,14.98S344.77,113.52,344.77,104.82z"/>
	<path class="st0" d="M369.45,77.27h14.54v10.58c1.54-4.52,7.16-11.68,19.28-11.68v16.08c-12.78,0-19.06,5.84-19.06,18.95v21.15
		h-14.76V77.27z"/>
	<path class="st0" d="M411.31,59.87h14.76v40.32l18.95-22.92h17.96l-21.48,24.02l25.12,31.07h-17.74l-16.52-21.04l-6.28,7.49v13.55
		h-14.76V59.87z"/>
	<path class="st0" d="M474.55,60.97h53.43v13.22h-38.01v14.54h32.39v13.11h-32.39v30.52h-15.42V60.97z"/>
	<path class="st0" d="M534.81,59.87h14.76v72.49h-14.76V59.87z"/>
	<path class="st0" d="M559.16,104.82c0-15.97,13-28.64,29.42-28.64c16.53,0,29.53,12.67,29.53,28.64s-13,28.64-29.53,28.64
		C572.16,133.46,559.16,120.79,559.16,104.82z M603,104.82c0-8.59-6.17-14.98-14.43-14.98s-14.43,6.39-14.43,14.98
		c0,8.7,6.17,14.98,14.43,14.98S603,113.52,603,104.82z"/>
	<path class="st0" d="M621.18,77.27h14.43l8.37,29.42c1.1,3.86,1.76,8.7,1.76,8.7s0.44-4.85,1.32-8.59l6.72-29.53h14.54l6.72,29.53
		c0.88,3.75,1.43,8.59,1.43,8.59s0.55-4.85,1.65-8.7l8.48-29.42h14.32l-17.63,55.19h-13.33l-7.38-29.75
		c-0.88-3.75-1.43-8.37-1.43-8.37s-0.66,4.63-1.54,8.37l-7.38,29.75h-13.44L621.18,77.27z"/>
</g>
<g>
	<path class="st1" d="M55.69,91.97c42.11-27.24,66.8-13.04,87.84,6.16c5.08,4.64,10.24,8.84,15.47,12.53
		C163.9,65.17,148.7,9.43,122.1,4.38C75.07-4.53,32.49,42.5,32.49,42.5C6.9,69.86,0.01,92.5,5,110.8
		C17.56,109.73,35.1,105.29,55.69,91.97z"/>
	<path class="st2" d="M77.87,105.72c-11.47,5.14-43.24,18.42-67.32,17.5c16.12,25.41,57.36,40.43,97.69,46.51
		c24.86,3.75,39.83-13.6,46.84-38.33C129.71,116.68,102.38,94.74,77.87,105.72z"/>
</g>
</svg>
