<?xml version="1.0" encoding="utf-8"?>
<!-- Generator: Adobe Illustrator 28.0.0, SVG Export Plug-In . SVG Version: 6.00 Build 0)  -->
<svg version="1.1" id="Layer_1" xmlns="http://www.w3.org/2000/svg" xmlns:xlink="http://www.w3.org/1999/xlink" x="0px" y="0px"
	 viewBox="0 0 299.32 73.69" style="enable-background:new 0 0 299.32 73.69;" xml:space="preserve">
<style type="text/css">
	.st0{fill:#FFFFFF;}
	.st1{opacity:0.6;fill:#FFFFFF;enable-background:new    ;}
	.st2{opacity:0.3;fill:#FFFFFF;enable-background:new    ;}
</style>
<g>
	<g>
		<path class="st0" d="M75.18,18.25h6.93l5.13,18.65c0.54,1.95,1.12,4.39,1.17,4.64c0.05-0.24,0.54-2.59,1.07-4.64l4.74-18.65h7.08
			L106,36.9c0.49,2,0.98,4.39,1.03,4.64c0.1-0.24,0.63-2.64,1.22-4.64l5.27-18.65h6.79l-9.42,31.69h-7.23l-4.83-17.97
			c-0.59-2.2-0.98-5.18-1.07-5.52c-0.1,0.34-0.49,3.32-1.07,5.52l-4.83,17.97h-7.28L75.18,18.25z"/>
		<path class="st0" d="M119.72,37.68c0-7.08,5.76-12.7,13.04-12.7c7.32,0,13.09,5.62,13.09,12.7s-5.76,12.7-13.09,12.7
			C125.48,50.38,119.72,44.76,119.72,37.68z M139.15,37.68c0-3.81-2.73-6.64-6.4-6.64s-6.4,2.83-6.4,6.64c0,3.86,2.73,6.64,6.4,6.64
			S139.15,41.54,139.15,37.68z"/>
		<path class="st0" d="M149.6,25.47h6.45v4.69c0.68-2,3.17-5.18,8.54-5.18v7.13c-5.66,0-8.45,2.59-8.45,8.4v9.38h-6.54V25.47z"/>
		<path class="st0" d="M168.15,17.76h6.54v17.87l8.4-10.16h7.96l-9.52,10.64l11.13,13.77h-7.86l-7.32-9.33l-2.78,3.32v6.01h-6.54
			L168.15,17.76L168.15,17.76z"/>
		<path class="st0" d="M196.18,18.25h23.68v5.86h-16.85v6.45h14.36v5.81h-14.36V49.9h-6.84V18.25H196.18z"/>
		<path class="st0" d="M222.89,17.76h6.54v32.13h-6.54V17.76z"/>
		<path class="st0" d="M233.34,37.68c0-7.08,5.76-12.7,13.04-12.7c7.32,0,13.09,5.62,13.09,12.7s-5.76,12.7-13.09,12.7
			C239.1,50.38,233.34,44.76,233.34,37.68z M252.77,37.68c0-3.81-2.73-6.64-6.4-6.64s-6.4,2.83-6.4,6.64c0,3.86,2.73,6.64,6.4,6.64
			S252.77,41.54,252.77,37.68z"/>
		<path class="st0" d="M260.34,25.47h6.4l3.71,13.04c0.49,1.71,0.78,3.86,0.78,3.86s0.2-2.15,0.59-3.81l2.98-13.09h6.45l2.98,13.09
			c0.39,1.66,0.63,3.81,0.63,3.81s0.24-2.15,0.73-3.86l3.76-13.04h6.35l-7.81,24.46h-5.91l-3.27-13.18
			c-0.39-1.66-0.63-3.71-0.63-3.71s-0.29,2.05-0.68,3.71l-3.27,13.18h-5.96L260.34,25.47z"/>
	</g>
	<polygon class="st1" points="54.68,30.84 61.97,35.15 32.34,54.19 3.31,35.49 10.53,31.14 32.34,45.19 	"/>
	<polygon class="st2" points="32.34,59.19 10.53,45.14 3.31,49.49 32.34,68.19 61.97,49.15 54.68,44.84 	"/>
	<path class="st0" d="M32.64,2.82L3.31,20.49l29.04,18.7l29.63-19.04L32.64,2.82z M31.57,32.33l-12.26-7.9l4.84-3.11l7.42,4.78
		l15.47-9.94l5.05,2.99L31.57,32.33z"/>
</g>
</svg>
