<?xml version="1.0" encoding="utf-8"?>
<!-- Generator: Adobe Illustrator 28.0.0, SVG Export Plug-In . SVG Version: 6.00 Build 0)  -->
<svg version="1.1" id="Layer_3" xmlns="http://www.w3.org/2000/svg" xmlns:xlink="http://www.w3.org/1999/xlink" x="0px" y="0px"
	 viewBox="0 0 842.23 198.56" style="enable-background:new 0 0 842.23 198.56;" xml:space="preserve">
<style type="text/css">
	.st0{fill:#FFFFFF;}
	.st1{opacity:0.65;fill:#FFFFFF;}
	.st2{opacity:0.35;fill:#FFFFFF;}
</style>
<g>
	<g>
		<path class="st0" d="M212.85,54.01h19.78l14.62,53.2c1.53,5.57,3.2,12.53,3.34,13.23c0.14-0.7,1.53-7.38,3.06-13.23l13.51-53.2
			h20.19l13.37,53.2c1.39,5.71,2.79,12.53,2.92,13.23c0.28-0.7,1.81-7.52,3.48-13.23l15.04-53.2h19.36l-26.88,90.39h-20.61
			l-13.79-51.25c-1.67-6.27-2.79-14.76-3.06-15.74c-0.28,0.97-1.39,9.47-3.06,15.74l-13.79,51.25h-20.75L212.85,54.01z"/>
		<path class="st0" d="M339.86,109.43c0-20.19,16.43-36.21,37.18-36.21c20.89,0,37.32,16.02,37.32,36.21s-16.43,36.21-37.32,36.21
			C356.3,145.64,339.86,129.63,339.86,109.43z M395.29,109.43c0-10.86-7.8-18.94-18.24-18.94s-18.24,8.08-18.24,18.94
			c0,11,7.8,18.94,18.24,18.94S395.29,120.44,395.29,109.43z"/>
		<path class="st0" d="M425.09,74.62h18.38v13.37c1.95-5.71,9.05-14.76,24.37-14.76v20.33c-16.16,0-24.09,7.38-24.09,23.95v26.74
			h-18.66V74.62z"/>
		<path class="st0" d="M478.02,52.61h18.66v50.97l23.95-28.97h22.7l-27.16,30.36l31.75,39.27h-22.42l-20.89-26.6l-7.94,9.47v17.13
			h-18.66V52.61z"/>
		<path class="st0" d="M557.96,54.01h67.55v16.71h-48.05V89.1h40.94v16.57h-40.94v38.58h-19.5V54.01z"/>
		<path class="st0" d="M634.14,52.61h18.66v91.64h-18.66V52.61z"/>
		<path class="st0" d="M663.94,109.43c0-20.19,16.43-36.21,37.18-36.21c20.89,0,37.32,16.02,37.32,36.21s-16.43,36.21-37.32,36.21
			C680.38,145.64,663.94,129.63,663.94,109.43z M719.37,109.43c0-10.86-7.8-18.94-18.24-18.94c-10.45,0-18.24,8.08-18.24,18.94
			c0,11,7.8,18.94,18.24,18.94C711.57,128.37,719.37,120.44,719.37,109.43z"/>
		<path class="st0" d="M740.96,74.62h18.24l10.58,37.18c1.39,4.87,2.23,11,2.23,11s0.56-6.13,1.67-10.86l8.5-37.32h18.38l8.5,37.32
			c1.11,4.74,1.81,10.86,1.81,10.86s0.7-6.13,2.09-11l10.72-37.18h18.1l-22.28,69.77h-16.85l-9.33-37.6
			c-1.11-4.74-1.81-10.58-1.81-10.58s-0.84,5.85-1.95,10.58l-9.33,37.6h-16.99L740.96,74.62z"/>
	</g>
	<g>
		<polygon class="st1" points="153.16,85.48 175.47,99.14 87.57,152.99 0.4,99.14 22.52,85.48 87.57,125.66 		"/>
		<polygon class="st2" points="87.57,170.8 22.52,130.62 0.4,144.28 87.57,198.13 175.47,144.28 153.16,130.62 		"/>
		<polygon class="st0" points="87.57,81.66 43.72,54.58 65.94,40.97 87.57,54.33 131.72,27.28 87.57,0.23 0.4,54.08 87.57,107.93 
			175.47,54.08 154.03,40.95 		"/>
	</g>
</g>
</svg>
